#!OML:ASF F:\VICON\USERDATA\INSTALL\Justin_Nancy\Justin_Nancy.ASF
:FULLY-SPECIFIED
:DEGREES
68
root -5.17178 17.4957 -0.827727 5.53414 27.3818 -5.64004
lowerback 9.62826 -1.82877 -7.90837
upperback -1.22532 -3.16449 3.46256
thorax -6.09724 -1.22098 8.64445
lowerneck -21.8603 -2.50777 -6.59749
upperneck 17.6358 -3.19504 8.30963
head 9.40913 -0.986261 3.52882
rclavicle 4.15957e-014 -1.86858e-014
rhumerus -53.3853 17.5399 -87.546
rradius 109.133
rwrist -30.4563
rhand -2.08289 23.4393
rfingers 7.12502
rthumb 23.5939 -5.13326
lclavicle 4.15957e-014 -1.86858e-014
lhumerus -29.9395 -12.8389 92.8639
lradius 108.863
lwrist 29.3865
lhand -9.65551 9.97425
lfingers 7.12502
lthumb 16.3154 39.3079
rfemur -39.7432 -5.40711 17.8975
rtibia 62.0306
rfoot -3.98244 -4.42266
rtoes -11.7654
lfemur 3.20142 3.26799 -25.4341
ltibia 30.9956
lfoot 4.32151 -2.42041
ltoes -15.2831
69
root -4.94736 17.5919 -0.370878 5.9568 28.5145 -4.40245
lowerback 8.8141 -2.33116 -8.40854
upperback -1.13197 -3.84344 3.24709
thorax -5.37985 -1.59167 8.71354
lowerneck -21.8033 -2.45393 -6.37745
upperneck 17.7211 -3.0987 7.86478
head 9.4082 -0.977809 3.34975
rclavicle -7.82218e-014 2.0276e-014
rhumerus -53.7425 17.3819 -87.8898
rradius 108.943
rwrist -29.6836
rhand -1.95062 23.788
rfingers 7.12502
rthumb 23.7208 -4.7681
lclavicle -7.82218e-014 2.0276e-014
lhumerus -30.8208 -13.1633 93.2437
lradius 108.356
lwrist 29.0237
lhand -10.2449 9.5858
lfingers 7.12502
lthumb 15.7478 38.9651
rfemur -38.572 -6.00618 16.7964
rtibia 57.4247
rfoot -4.85167 -3.62048
rtoes -15.4442
lfemur 5.60051 1.23465 -26.127
ltibia 28.7974
lfoot 9.34692 -2.71364
ltoes -15.4729
70
root -4.73245 17.6764 0.0623331 6.21098 29.2531 -3.51814
lowerback 8.33921 -2.68476 -8.6816
upperback -1.07291 -4.31148 3.13473
thorax -4.93953 -1.84728 8.75455
lowerneck -22.0718 -2.38917 -6.56398
upperneck 18.0561 -2.96036 7.90189
head 9.56522 -0.915563 3.42193
rclavicle 6.4605e-016 -4.37326e-015
rhumerus -54.0916 17.3846 -88.2182
rradius 108.835
rwrist -29.1353
rhand -1.80398 23.7347
rfingers 7.12502
rthumb 23.8614 -4.80311
lclavicle 6.4605e-016 -4.37326e-015
lhumerus -31.6742 -13.4427 93.5737
lradius 108.006
lwrist 28.9453
lhand -10.4592 9.60592
lfingers 7.12502
lthumb 15.5414 39.0014
rfemur -37.5019 -6.14968 16.0001
rtibia 52.6903
rfoot -5.25093 -2.8316
rtoes -18.3579
lfemur 7.93309 -0.720898 -26.7294
ltibia 26.4456
lfoot 14.5018 -2.72249
ltoes -13.4102
71
root -4.53376 17.7468 0.454485 6.2362 29.3252 -3.32887
lowerback 8.12531 -2.80514 -8.44563
upperback -1.00611 -4.42413 3.22536
thorax -4.73248 -1.92422 8.70646
lowerneck -22.5444 -2.34553 -6.78821
upperneck 18.3127 -2.76911 7.72
head 9.72353 -0.85476 3.42996
rclavicle -9.93923e-016 -4.47266e-014
rhumerus -54.0953 17.5741 -88.3697
rradius 108.511
rwrist -28.7151
rhand -1.822 23.7091
rfingers 7.12502
rthumb 23.8441 -4.83103
lclavicle -9.93923e-016 -4.47266e-014
lhumerus -32.2118 -13.7024 93.8273
lradius 107.597
lwrist 28.9661
lhand -10.6877 9.45804
lfingers 7.12502
lthumb 15.3213 38.8705
rfemur -36.7303 -5.32331 15.7671
rtibia 47.8018
rfoot -5.0255 -2.17827
rtoes -19.6922
lfemur 9.73155 -2.36758 -26.966
ltibia 24.5075
lfoot 18.7505 -2.90955
ltoes -9.46308
72
root -4.33902 17.8151 0.848334 6.23784 29.2569 -3.25025
lowerback 7.93921 -2.82398 -8.14917
upperback -1.05465 -4.4042 3.27055
thorax -4.70002 -1.92218 8.57071
lowerneck -22.5544 -2.45949 -6.83152
upperneck 18.3177 -2.81879 7.32273
head 9.72466 -0.92788 3.28751
rclavicle -4.70374e-014 3.37934e-015
rhumerus -54.3026 17.5685 -88.5908
rradius 108.175
rwrist -28.5017
rhand -1.94243 23.5212
rfingers 7.12502
rthumb 23.7286 -5.03398
lclavicle -4.70374e-014 3.37934e-015
lhumerus -32.9507 -14.1309 94.0761
lradius 107.049
lwrist 28.9311
lhand -10.8912 9.36488
lfingers 7.12502
lthumb 15.1253 38.7922
rfemur -35.8897 -4.25272 15.5856
rtibia 42.8303
rfoot -4.75149 -1.59691
rtoes -20.5316
lfemur 11.0452 -3.84942 -27.1691
ltibia 23.5053
lfoot 21.3498 -4.20441
ltoes -6.24087
73
root -4.15014 17.8721 1.23856 6.28372 29.2343 -3.04982
lowerback 8.02004 -2.82619 -7.97242
upperback -1.28869 -4.40373 3.23165
thorax -5.01044 -1.90083 8.44618
lowerneck -22.3389 -2.51684 -6.74568
upperneck 18.5097 -2.87661 7.01355
head 9.75197 -0.988431 3.15703
rclavicle -2.28602e-014 1.07344e-014
rhumerus -54.8769 17.4244 -88.9367
rradius 108.002
rwrist -28.2547
rhand -1.99049 23.8553
rfingers 7.12502
rthumb 23.6825 -4.70577
lclavicle -2.28602e-014 1.07344e-014
lhumerus -34.0432 -14.5878 94.4059
lradius 106.537
lwrist 28.793
lhand -10.881 9.73862
lfingers 7.12502
lthumb 15.1351 39.1652
rfemur -34.9458 -3.22277 15.2402
rtibia 37.8744
rfoot -4.2445 -1.16632
rtoes -20.1769
lfemur 11.9238 -5.0738 -27.4662
ltibia 23.3524
lfoot 24.0411 -5.86218
ltoes -2.15206
74
root -3.96514 17.9167 1.62836 6.47309 29.2737 -2.66065
lowerback 7.99894 -2.84824 -8.0507
upperback -1.41646 -4.44502 3.19639
thorax -5.12378 -1.90835 8.46202
lowerneck -22.1443 -2.37882 -6.4924
upperneck 18.5518 -2.71037 6.70567
head 9.71036 -0.932459 3.03011
rclavicle 7.16122e-014 6.75868e-015
rhumerus -55.246 17.3236 -89.22
rradius 107.97
rwrist -27.9578
rhand -2.29718 24.2128
rfingers 7.12502
rthumb 23.3883 -4.38607
lclavicle 7.16122e-014 6.75868e-015
lhumerus -35.1198 -14.939 94.6523
lradius 106.293
lwrist 28.6917
lhand -10.5454 9.88424
lfingers 7.12502
lthumb 15.4584 39.2861
rfemur -33.9928 -2.27512 14.6875
rtibia 33.1042
rfoot -3.47291 -1.04852
rtoes -19.9563
lfemur 12.509 -5.95117 -27.8294
ltibia 23.7217
lfoot 25.7018 -7.56289
ltoes 0.0791117
75
root -3.77788 17.9545 2.00612 6.67736 29.3657 -2.08703
lowerback 8.09812 -2.8547 -8.13034
upperback -1.43688 -4.47686 3.06298
thorax -5.20043 -1.91809 8.37515
lowerneck -22.1289 -2.26042 -6.21018
upperneck 18.3625 -2.56651 6.42534
head 9.62188 -0.878714 2.90147
rclavicle -5.52621e-014 1.48095e-014
rhumerus -55.3533 17.1869 -89.4778
rradius 107.955
rwrist -27.5856
rhand -2.40288 24.1328
rfingers 7.12502
rthumb 23.2869 -4.47894
lclavicle -5.52621e-014 1.48095e-014
lhumerus -36.0514 -15.3798 94.8711
lradius 106.121
lwrist 28.4753
lhand -10.6886 9.78496
lfingers 7.12502
lthumb 15.3204 39.1975
rfemur -32.9718 -1.70062 14.0369
rtibia 28.6956
rfoot -2.71559 -1.09881
rtoes -22.3498
lfemur 13.0171 -6.50035 -28.2989
ltibia 24.5381
lfoot 26.1224 -8.16537
ltoes 1.23454
76
root -3.59829 17.9862 2.37964 6.80824 29.4668 -1.60959
lowerback 8.28564 -2.7969 -8.1706
upperback -1.47377 -4.42566 2.94366
thorax -5.36322 -1.88181 8.28137
lowerneck -22.2584 -2.3619 -6.22904
upperneck 18.3195 -2.65202 6.2567
head 9.63351 -0.937681 2.83158
rclavicle 3.25634e-014 9.93923e-016
rhumerus -55.3278 16.9752 -89.6067
rradius 107.951
rwrist -27.2997
rhand -2.38245 23.8943
rfingers 7.12502
rthumb 23.3065 -4.71497
lclavicle 3.25634e-014 9.93923e-016
lhumerus -36.6223 -15.9036 95.1667
lradius 105.591
lwrist 28.1688
lhand -10.7375 9.29422
lfingers 7.12502
lthumb 15.2733 38.7103
rfemur -31.964 -0.937316 13.4698
rtibia 24.8126
rfoot -1.86581 -1.80131
rtoes -24.4294
lfemur 13.2919 -6.72961 -28.5562
ltibia 25.8011
lfoot 26.1331 -7.54003
ltoes 2.61445
77
root -3.42618 17.998 2.75324 6.7874 29.5881 -1.11475
lowerback 8.45268 -2.73132 -8.36118
upperback -1.31731 -4.37073 2.86189
thorax -5.29527 -1.8589 8.3016
lowerneck -22.3037 -2.45193 -6.31296
upperneck 17.9993 -2.73628 6.27124
head 9.53626 -0.980678 2.83313
rclavicle 1.16103e-014 2.38542e-014
rhumerus -54.9888 16.7734 -89.6234
rradius 107.935
rwrist -26.866
rhand -2.33376 24.0002
rfingers 7.12502
rthumb 23.3532 -4.60315
lclavicle 1.16103e-014 2.38542e-014
lhumerus -36.8684 -16.3311 95.376
lradius 105.01
lwrist 27.8683
lhand -10.5922 8.84427
lfingers 7.12502
lthumb 15.4133 38.2496
rfemur -30.8751 0.0271352 12.8593
rtibia 21.6222
rfoot -1.00776 -3.05649
rtoes -24.6286
lfemur 13.5102 -6.74346 -28.7625
ltibia 27.5498
lfoot 25.511 -6.39736
ltoes 2.66554
78
root -3.25492 17.9942 3.11986 6.85415 29.6782 -0.426144
lowerback 8.81311 -2.69372 -8.65049
upperback -1.21559 -4.38603 2.71384
thorax -5.37985 -1.85743 8.33172
lowerneck -22.2504 -2.4656 -6.40371
upperneck 17.5319 -2.72558 6.34348
head 9.36479 -0.974896 2.86791
rclavicle -3.53091e-014 -3.63527e-014
rhumerus -54.9026 16.6666 -89.8508
rradius 108.101
rwrist -26.1091
rhand -2.57912 24.1411
rfingers 7.12502
rthumb 23.1178 -4.49194
lclavicle -3.53091e-014 -3.63527e-014
lhumerus -37.308 -16.5473 95.5499
lradius 104.547
lwrist 27.5277
lhand -10.6877 8.85394
lfingers 7.12502
lthumb 15.3213 38.2664
rfemur -30.0028 0.631965 12.2462
rtibia 19.2778
rfoot -0.144064 -3.74549
rtoes -24.7368
lfemur 13.4716 -6.6543 -29.1253
ltibia 29.8257
lfoot 23.7712 -5.28162
ltoes 0.908722
79
root -3.08263 17.983 3.4831 6.79956 29.7795 0.0484503
lowerback 9.39839 -2.59414 -8.54386
upperback -1.27507 -4.30708 2.45678
thorax -5.81889 -1.7958 8.03313
lowerneck -22.0726 -2.55094 -6.31159
upperneck 17.2668 -2.87249 6.34262
head 9.25031 -1.04006 2.82699
rclavicle -1.02654e-014 -7.95139e-016
rhumerus -55.0459 16.3446 -90.339
rradius 108.184
rwrist -25.0957
rhand -2.34677 24.6136
rfingers 7.12502
rthumb 23.3408 -3.99129
lclavicle -1.02654e-014 -7.95139e-016
lhumerus -37.9786 -16.9392 95.6979
lradius 104.127
lwrist 27.2505
lhand -10.4845 8.7468
lfingers 7.12502
lthumb 15.517 38.1442
rfemur -29.3489 0.837251 12.0271
rtibia 17.856
rfoot 0.610603 -3.70644
rtoes -24.9913
lfemur 13.0881 -6.44659 -29.2458
ltibia 32.6387
lfoot 22.8536 -4.13343
ltoes 0.7934
80
root -2.9116 17.9633 3.85046 6.71979 30.0804 0.411786
lowerback 9.68599 -2.51386 -8.45805
upperback -1.20163 -4.21995 2.30597
thorax -5.93756 -1.75287 7.82922
lowerneck -21.7088 -2.56092 -6.02275
upperneck 16.802 -2.92171 6.07865
head 9.02005 -1.07996 2.67369
rclavicle -7.92033e-016 2.37175e-014
rhumerus -54.7816 15.9727 -90.5025
rradius 108.207
rwrist -24.3687
rhand -0.830367 25.1089
rfingers 7.12502
rthumb 24.7948 -3.30374
lclavicle -7.92033e-016 2.37175e-014
lhumerus -38.622 -17.3445 95.9212
lradius 103.814
lwrist 26.9607
lhand -10.7543 8.85307
lfingers 7.12502
lthumb 15.2571 38.2704
rfemur -28.8899 1.02649 11.9432
rtibia 17.3876
rfoot 0.954237 -4.03667
rtoes -23.999
lfemur 12.4359 -6.39961 -29.1985
ltibia 35.9065
lfoot 23.7099 -2.71094
ltoes 5.88913
81
root -2.74692 17.9292 4.19961 6.61929 30.15 0.830668
lowerback 9.95819 -2.34844 -8.65595
upperback -0.904934 -4.03186 2.34648
thorax -5.79465 -1.67105 7.96966
lowerneck -21.2568 -2.41585 -5.89783
upperneck 15.8195 -2.66697 5.70043
head 8.57976 -1.00263 2.54625
rclavicle 7.48673e-014 1.08835e-014
rhumerus -54.0094 15.8708 -90.2245
rradius 108.36
rwrist -24.1673
rhand -2.17281 24.6945
rfingers 7.12502
rthumb 23.5076 -3.88908
lclavicle 7.48673e-014 1.08835e-014
lhumerus -38.9921 -17.46 96.2978
lradius 103.607
lwrist 26.7066
lhand -11.1401 9.25273
lfingers 7.12502
lthumb 14.8855 38.6979
rfemur -28.7831 1.24992 11.9084
rtibia 17.8884
rfoot 1.12082 -4.27873
rtoes -21.3394
lfemur 11.4781 -6.06718 -29.2216
ltibia 39.4823
lfoot 23.1334 -1.91564
ltoes 5.20451
82
root -2.58543 17.8808 4.54959 6.50795 30.3148 1.2341
lowerback 10.2356 -2.21226 -8.8042
upperback -0.617192 -3.87925 2.36662
thorax -5.66259 -1.60825 8.06431
lowerneck -21.6081 -3.20408 -7.03154
upperneck 15.1878 -3.45082 6.19335
head 8.505 -1.38281 2.78625
rclavicle 1.17184e-013 -1.23246e-014
rhumerus -53.1766 15.9251 -89.9848
rradius 108.491
rwrist -24.3711
rhand -2.44132 24.8272
rfingers 7.12502
rthumb 23.2501 -3.78924
lclavicle 1.17184e-013 -1.23246e-014
lhumerus -39.2534 -17.4554 96.6205
lradius 103.331
lwrist 26.6742
lhand -11.1482 9.26445
lfingers 7.12502
lthumb 14.8777 38.7102
rfemur -28.7656 0.672765 12.2284
rtibia 18.9686
rfoot 1.53535 -3.19954
rtoes -21.2261
lfemur 10.3125 -5.63313 -29.0876
ltibia 43.2294
lfoot 22.8949 -1.34998
ltoes 7.56739
